<?xml version="1.0" encoding="UTF-8" standalone="no"?>
<svg width="41.0104mm" height="52.9167mm"
 xmlns="http://www.w3.org/2000/svg" xmlns:xlink="http://www.w3.org/1999/xlink"  version="1.2" baseProfile="tiny">
<desc>Created by EvoPdf</desc>
<defs>
</defs>
<g fill="none" stroke="black" stroke-width="1" fill-rule="evenodd" stroke-linecap="square" stroke-linejoin="bevel" >

<g fill="#000000" fill-opacity="1" stroke="#000000" stroke-opacity="1" stroke-width="1" stroke-linecap="square" stroke-linejoin="miter" stroke-miterlimit="2" transform="matrix(1,0,0,1,0,0)"
>
</g>

<g fill="#000000" fill-opacity="1" stroke="#000000" stroke-opacity="1" stroke-width="1" stroke-linecap="square" stroke-linejoin="miter" stroke-miterlimit="2" transform="matrix(1,0,0,1,0,0)"
>
</g>

<g fill="#000000" fill-opacity="1" stroke="#000000" stroke-opacity="1" stroke-width="1" stroke-linecap="square" stroke-linejoin="miter" stroke-miterlimit="2" transform="matrix(1,0,0,1,0,0)"
>
</g>

<g fill="#000000" fill-opacity="1" stroke="#000000" stroke-opacity="1" stroke-width="1" stroke-linecap="square" stroke-linejoin="miter" stroke-miterlimit="2" transform="matrix(1,0,0,1,0,0)"
>
</g>

<g fill="#000000" fill-opacity="1" stroke="#000000" stroke-opacity="1" stroke-width="1" stroke-linecap="square" stroke-linejoin="miter" stroke-miterlimit="2" transform="matrix(0.999968,0,0,0.999968,8.00226,8)"
>
</g>

<g fill="#000000" fill-opacity="1" stroke="#000000" stroke-opacity="1" stroke-width="1" stroke-linecap="square" stroke-linejoin="miter" stroke-miterlimit="2" transform="matrix(0.935655,0,0,0.935655,30.9673,6.34389)"
>
</g>

<g fill="#78be20" fill-opacity="1" stroke="none" transform="matrix(0.935655,0,0,0.935655,30.9673,6.34389)"
>
<path vector-effect="none" fill-rule="nonzero" d="M70.534,64.055 C66.262,62.673 62.493,58.15 58.724,53.501 C54.955,48.852 52.191,36.163 52.191,34.906 C52.191,34.015 51.684,33.631 50.942,33.482 L50.942,5.468 C57.818,5.401 63.246,4.6 63.246,3.622 C63.246,2.599 57.315,1.77 50,1.77 C42.685,1.77 36.754,2.599 36.754,3.622 C36.754,4.6 42.183,5.401 49.058,5.468 L49.058,33.482 C48.316,33.631 47.809,34.015 47.809,34.906 C47.809,36.162 45.045,48.852 41.276,53.501 C37.507,58.15 33.738,62.673 29.466,64.055 C25.194,65.437 25.575,66.669 25.822,68.327 C26.113,70.276 27.958,88.806 33.235,94.586 C33.246,94.592 33.275,94.587 33.311,94.579 C33.778,95.497 35.407,96.1 38.612,96.58 C41.653,97.036 45.685,97.287 49.967,97.287 C54.249,97.287 58.282,97.036 61.322,96.58 C64.544,96.097 66.173,95.49 66.63,94.564 C66.701,94.586 66.747,94.594 66.764,94.586 C72.041,88.806 73.886,70.276 74.177,68.327 C74.426,66.669 74.806,65.437 70.534,64.055 M49.968,95.402 C42,95.402 37.182,94.586 35.533,93.966 C37.182,93.346 42,92.53 49.968,92.53 C57.936,92.53 62.754,93.346 64.403,93.966 C62.754,94.586 57.936,95.402 49.968,95.402 "/>
</g>

<g fill="#000000" fill-opacity="1" stroke="#000000" stroke-opacity="1" stroke-width="1" stroke-linecap="square" stroke-linejoin="miter" stroke-miterlimit="2" transform="matrix(0.935655,0,0,0.935655,30.9673,6.34389)"
>
</g>

<g fill="#000000" fill-opacity="1" stroke="#000000" stroke-opacity="1" stroke-width="1" stroke-linecap="square" stroke-linejoin="miter" stroke-miterlimit="2" transform="matrix(0.999968,0,0,0.999968,8.00226,8)"
>
</g>

<g fill="#000000" fill-opacity="1" stroke="#000000" stroke-opacity="1" stroke-width="1" stroke-linecap="square" stroke-linejoin="miter" stroke-miterlimit="2" transform="matrix(1.11916,0,0,1.11916,5.77308,105.917)"
>
</g>

<g fill="#6e6c6c" fill-opacity="1" stroke="none" transform="matrix(1.11916,0,0,1.11916,5.77308,105.917)"
>
<path vector-effect="none" fill-rule="nonzero" d="M7.52,29.68 C7.4,25.12 7.44,20.28 7.48,15.76 C7.48,14.36 7.4,12.84 7.4,11.44 C7.4,9.92 6.8,10 6,9.96 C4.84,9.92 4.32,9.92 3.16,9.92 C2.4,9.88 2.08,10.08 2.08,10.84 C2.08,14.76 1.96,25.84 2,27.44 C2.04,29.04 2.2,36.32 2.12,37.92 C2.08,38.48 2.12,39.04 2.16,39.6 C2.2,39.8 2.32,40 2.64,40 C3.96,39.92 5.2,39.92 6.52,39.88 C7,39.84 7.4,39.72 7.6,39.2 C7.64,38.92 7.52,31.6 7.52,29.68 L7.52,29.68 M28.64,10.92 C28.76,11.48 28.68,38.12 28.68,38.8 C28.68,40 28.24,39.96 27.44,39.96 C26.24,39.96 24.56,40.16 24.2,39.76 C23.88,39.48 17.96,25.2 17.12,23.4 C17.04,23.24 16.84,22.84 16.68,22.92 C16.48,23 16.56,23.28 16.56,23.44 C16.52,24.84 16.76,36.92 16.76,38.84 C16.76,39.8 16.72,39.96 15.92,39.96 L13.92,39.96 C13.4,39.96 12.76,39.92 12.24,40 C11.84,40 11.64,39.88 11.6,39.48 L11.6,36.32 C11.68,32.96 11.6,13.04 11.6,11.56 C11.6,10.28 11.96,10.04 13.24,10.04 C14.12,10 15,10 15.88,10 C16.16,10 16.32,10.04 16.48,10.4 C17.56,12.92 22.16,24.48 22.88,25.88 C23,26.16 23.44,27.28 23.68,27.4 L23.72,27.4 C23.88,27.24 23.84,26.44 23.84,26.2 C23.84,25.6 23.52,11.56 23.52,11.28 C23.52,10.88 23.4,10.52 23.6,10.24 C23.72,10.08 24.24,10.04 24.44,9.99999 C25.56,9.91999 26.88,10.04 28,9.99999 C28.56,9.99999 28.52,10.4 28.64,10.92 L28.64,10.92 M34.36,9.96 C34.32,9.96 34,9.92 33.68,9.92 C33.12,9.92 32.84,10.12 32.76,10.64 C32.72,10.92 32.72,11.24 32.8,11.48 C33.12,12.72 39.32,38.36 39.64,39.48 C39.76,39.96 39.8,39.96 40.28,39.96 L43.52,39.96 L43.76,39.96 C44.28,39.96 44.32,39.24 44.44,38.56 C45.24,34.44 46.24,30.36 47.2,26.4 C47.24,26.16 47.32,25.92 47.4,25.72 C47.44,25.64 47.52,25.6 47.56,25.6 C47.64,25.6 47.72,25.64 47.76,25.72 C47.96,26.2 50.36,37.56 50.84,39.52 C50.92,39.76 51.04,39.96 51.36,39.96 L54.56,39.96 C55.16,39.96 55.56,39.64 55.68,39.04 C56.2,36.4 56.88,33.44 57.52,30.84 C58.32,27.64 59.16,24.48 60,21.28 C60.64,18.72 61.32,15.92 62.12,13.4 C62.4,12.56 63.44,10.04 61.68,10.04 C60.8,10.04 60.04,9.96 59.16,10 C58.88,10 58.6,10 58.32,10.04 C57.88,10.04 57.56,10.28 57.4,10.68 C57.28,11.08 57.08,11.52 56.96,11.92 C56.36,14.48 55.8,17.4 55.08,19.92 C54.56,21.8 54,23.64 53.56,25.52 C53.56,25.56 53.4,26.16 53.24,26.16 C52.96,26.16 52.88,25.72 52.8,25.32 C52.76,25.16 50.76,13.68 50.48,11.44 C50.4,10.56 50.12,10.04 49.2,9.99999 L48.72,9.99999 C47.68,10.08 47.12,9.95999 46.08,10.04 C45.24,10.08 45.12,10.16 44.92,10.92 C44.88,11.08 44.88,11.28 44.84,11.48 C44.52,13.24 42.44,24.6 42.16,25.96 C42.16,26.04 42.12,26.2 42,26.2 C41.84,26.2 41.8,26 41.76,25.92 C41.72,25.76 38.24,11.08 38.12,10.72 C37.96,10.24 37.6,9.95999 37.04,9.95999 C36.16,9.99999 35.48,9.95999 34.36,9.95999 L34.36,9.96 M70.36,39.68 C70.48,39.72 70.84,39.72 71.2,39.72 C72,39.72 72.24,36.84 72.32,36.24 C72.36,35.76 72.48,35.72 72.88,35.64 C74.88,35.4 75.88,35.56 77.88,35.6 C78.32,35.6 78.56,35.8 78.68,36.16 L78.96,37.08 C79.2,37.76 79.4,38.6 79.64,39.28 C79.8,39.76 79.84,39.72 80.32,39.72 C80.96,39.72 83.28,39.72 83.96,39.68 C84.88,39.68 84.24,37.8 84.12,37.48 C83.76,36.36 83.68,35.2 83.32,34.08 C83.16,33.6 78.6,11.96 78.4,10.76 C78.12,10.04 78.36,10 77.72,10 C76.36,10 74.92,10.08 73.52,10 C72.96,10 73,10.16 72.92,10.76 C72.84,11.32 71.4,17.68 70.84,20.32 C70.12,23.64 69.48,26.84 68.68,30.12 C68.4,31.28 66.48,39.64 66.72,39.68 C66.84,39.76 67.04,39.72 67.2,39.72 C68.2,39.72 69.12,39.72 70.36,39.68 L70.36,39.68 M75.6,30.6 L74.76,30.6 C73.64,30.6 73.6,30.6 73.88,29.44 C74.08,28.56 75.16,23.8 75.4,22.64 C75.44,22.56 75.52,22.48 75.56,22.48 C75.64,22.48 75.72,22.56 75.76,22.6 C75.92,23.08 76.08,24.28 76.24,24.76 C76.6,26.28 76.84,27.56 77.2,29.2 C77.56,30.64 77.4,30.64 76.68,30.64 C76.32,30.64 75.96,30.6 75.6,30.6 L75.6,30.6 M93.4,37 C93.4,35.96 93.4,29.4 93.44,28.88 C93.48,28.76 93.56,28.52 93.72,28.52 C93.88,28.52 93.96,28.6 94,28.72 C95.6,31.84 97,34.96 98.44,38 C98.64,38.44 99.08,39.72 99.2,39.84 C99.36,40.08 99.64,40 99.88,40 L104.28,40.04 C104.8,40.04 104.92,39.72 104.8,39.28 C104.48,38.08 102.2,33.84 101.68,32.8 C101.32,32 98.92,27.36 98.84,27 C98.76,26.84 99.36,26.56 99.44,26.44 C101.36,24.72 103.08,22.96 103.44,20.28 C103.84,17.64 103.24,14.76 101.52,12.64 C100.2,11.08 98.48,10.16 96.44,10.04 C95.2,9.96 94,10.08 92.76,10.04 C91.68,10 90.92,10 89.56,10 C88.92,10 88.52,10.36 88.48,11.04 L88.48,11.52 C88.4,14.6 88.48,17.68 88.52,20.72 C88.52,25.36 88.44,37.6 88.44,39.36 C88.44,39.88 88.52,40 89,40 C89.28,40 89.6,40.04 89.88,40.04 C91,40.04 91.68,40 92.84,40 C93.72,40 93.4,38.56 93.4,37 L93.4,37 M93.4,21.4 L93.44,17.36 C93.48,16.76 93.28,15.56 93.84,15.12 C94.6,14.56 96.16,15.12 96.84,15.6 C98.84,16.96 98.68,20.32 97.6,22.2 C97.08,23.08 96.2,23.6 95.2,23.88 C94.6,24.04 93.48,24.24 93.44,23.28 C93.44,22.64 93.4,21.4 93.4,21.4 L93.4,21.4 M125.68,32.64 C125.92,32.12 126.12,31.6 126.32,31.08 C126.76,29.8 126.84,28.48 126.96,27.16 C127.2,24.36 127.12,21.52 126.4,18.8 C125.52,15.32 123.28,12.12 119.92,10.64 C118.4,9.96 116.68,9.88 115.04,9.92 C113.32,9.92 111.56,9.84 109.84,10 C109.36,10.04 109.12,10.28 109.04,10.72 C108.96,11.2 108.88,11.68 108.88,12.12 C108.96,14.56 108.88,21.8 108.96,23 C109,24.08 108.88,25.4 108.88,26.48 C108.92,29.16 108.88,31.88 108.88,34.56 C108.88,35.68 108.84,36.76 108.84,37.88 C108.84,39.08 108.4,39.6 111.68,39.6 C114.6,39.6 117.64,39.36 120.4,38.32 C122.96,37.4 124.56,35.04 125.68,32.64 L125.68,32.64 M114.04,28.48 L114.04,23.68 C114.04,20.64 114.12,18.68 114,16.12 L114,15.64 C114.04,14.8 114.16,14.76 115.04,14.76 C116.2,14.72 117.04,15 118.04,15.4 C119.04,15.8 119.6,16.68 120.12,17.52 C121.12,19.16 121.52,20.96 121.6,22.84 C121.64,23.92 121.68,25 121.68,26.08 C121.68,31.2 118.68,34.76 116.04,34.76 C114.28,34.76 114,34.88 114,33.72 C114,32.52 114.08,31.32 114.08,30.12 C114.04,29.6 114.04,29.04 114.04,28.48 L114.04,28.48"/>
</g>

<g fill="#000000" fill-opacity="1" stroke="#000000" stroke-opacity="1" stroke-width="1" stroke-linecap="square" stroke-linejoin="miter" stroke-miterlimit="2" transform="matrix(1.11916,0,0,1.11916,5.77308,105.917)"
>
</g>

<g fill="#000000" fill-opacity="1" stroke="#000000" stroke-opacity="1" stroke-width="1" stroke-linecap="square" stroke-linejoin="miter" stroke-miterlimit="2" transform="matrix(0.999968,0,0,0.999968,8.00226,8)"
>
</g>

<g fill="#000000" fill-opacity="1" stroke="#000000" stroke-opacity="1" stroke-width="1" stroke-linecap="square" stroke-linejoin="miter" stroke-miterlimit="2" transform="matrix(1.50815,0,0,1.50815,16.5054,163.635)"
>
</g>

<g fill="#78be20" fill-opacity="1" stroke="none" transform="matrix(1.50815,0,0,1.50815,16.5054,163.635)"
>
<path vector-effect="none" fill-rule="nonzero" d="M1.02,7.62 C1.04,8.8 1.04,18.82 1.04,19.64 C1.04,19.94 1.08,20 1.38,20 C2.06,20 2.06,20.02 2.74,20 C2.88,20 3.12,20 3.24,19.94 C3.38,19.88 3.3,15.16 3.3,14.9 C3.3,14.62 3.86,14.68 4.02,14.68 C7.36,14.68 8.28,12.28 8.28,10.24 C8.28,8.4 7.92,5 3.76,5 C3.04,5 2.3,5.02 1.6,5.02 C1.44,5.02 1.24,5 1.1,5.1 C0.940001,5.22 1,7 1.02,7.62 L1.02,7.62 M3.32,11.74 C3.32,11.3 3.3,8.68 3.32,7.88 C3.32,7.76 3.3,7.62 3.32,7.48 C3.38,7.26 3.64,7.26 3.84,7.28 C5,7.36 5.66,8.38 5.76,9.46 C5.84,10.24 5.74,11.4 5.18,12.02 C4.78,12.44 4.26,12.7 3.58,12.7 C3.44,12.7 3.3,12.54 3.3,12.4 C3.3,12.18 3.3,11.96 3.32,11.74 L3.32,11.74 M12.506,6.96 C12.486,8.2 12.606,17.26 12.586,17.92 C12.586,18.54 12.586,19.16 12.606,19.78 C12.606,19.88 12.666,19.98 12.766,19.98 C14.166,20.04 15.546,19.92 16.946,19.94 C17.406,19.96 17.866,19.94 18.306,19.94 C18.746,19.92 18.786,19.74 18.766,19.38 C18.746,18.82 18.746,18.32 18.746,17.78 C18.726,17.5 18.566,17.4 18.326,17.4 C17.506,17.42 16.686,17.38 15.866,17.42 C15.726,17.44 15.586,17.44 15.446,17.44 C15.206,17.42 15.146,17.36 15.126,17.1 L15.126,16.8 C15.066,15.14 15.186,13.42 15.186,11.76 C15.166,10.36 15.186,9.1 15.166,7.86 C15.166,7.32 15.166,6.78 15.146,6.26 C15.126,5.94 15.146,5.6 15.066,5.28 C15.026,5.16 14.966,5 14.826,5 L12.946,5 C12.626,5 12.526,5.22 12.506,5.54 L12.506,6.96 L12.506,6.96 M24.832,19.84 C24.892,19.86 25.072,19.86 25.252,19.86 C25.652,19.86 25.772,18.42 25.812,18.12 C25.832,17.88 25.892,17.86 26.092,17.82 C27.092,17.7 27.592,17.78 28.592,17.8 C28.812,17.8 28.932,17.9 28.992,18.08 L29.132,18.54 C29.252,18.88 29.352,19.3 29.472,19.64 C29.552,19.88 29.572,19.86 29.812,19.86 C30.132,19.86 31.292,19.86 31.632,19.84 C32.092,19.84 31.772,18.9 31.712,18.74 C31.532,18.18 31.492,17.6 31.312,17.04 C31.232,16.8 28.952,5.98 28.852,5.38 C28.712,5.02 28.832,5 28.512,5 C27.832,5 27.112,5.04 26.412,5 C26.132,5 26.152,5.08 26.112,5.38 C26.072,5.66 25.352,8.84 25.072,10.16 C24.712,11.82 24.392,13.42 23.992,15.06 C23.852,15.64 22.892,19.82 23.012,19.84 C23.072,19.88 23.172,19.86 23.252,19.86 C23.752,19.86 24.212,19.86 24.832,19.84 L24.832,19.84 M27.452,15.3 L27.032,15.3 C26.472,15.3 26.452,15.3 26.592,14.72 C26.692,14.28 27.232,11.9 27.352,11.32 C27.372,11.28 27.412,11.24 27.432,11.24 C27.472,11.24 27.512,11.28 27.532,11.3 C27.612,11.54 27.692,12.14 27.772,12.38 C27.952,13.14 28.072,13.78 28.252,14.6 C28.432,15.32 28.352,15.32 27.992,15.32 C27.812,15.32 27.632,15.3 27.452,15.3 L27.452,15.3 M44.618,5.46 C44.678,5.74 44.638,19.06 44.638,19.4 C44.638,20 44.418,19.98 44.018,19.98 C43.418,19.98 42.578,20.08 42.398,19.88 C42.238,19.74 39.278,12.6 38.858,11.7 C38.818,11.62 38.718,11.42 38.638,11.46 C38.538,11.5 38.578,11.64 38.578,11.72 C38.558,12.42 38.678,18.46 38.678,19.42 C38.678,19.9 38.658,19.98 38.258,19.98 L37.258,19.98 C36.998,19.98 36.678,19.96 36.418,20 C36.218,20 36.118,19.94 36.098,19.74 L36.098,18.16 C36.138,16.48 36.098,6.52 36.098,5.78 C36.098,5.14 36.278,5.02 36.918,5.02 C37.358,5 37.798,5 38.238,5 C38.378,5 38.458,5.02 38.538,5.2 C39.078,6.46 41.378,12.24 41.738,12.94 C41.798,13.08 42.018,13.64 42.138,13.7 L42.158,13.7 C42.238,13.62 42.218,13.22 42.218,13.1 C42.218,12.8 42.058,5.78 42.058,5.64 C42.058,5.44 41.998,5.26 42.098,5.12 C42.158,5.04 42.418,5.02 42.518,5 C43.078,4.96 43.738,5.02 44.298,5 C44.578,5 44.558,5.2 44.618,5.46 L44.618,5.46 M57.404,5.46 C57.464,5.74 57.424,19.06 57.424,19.4 C57.424,20 57.204,19.98 56.804,19.98 C56.204,19.98 55.364,20.08 55.184,19.88 C55.024,19.74 52.064,12.6 51.644,11.7 C51.604,11.62 51.504,11.42 51.424,11.46 C51.324,11.5 51.364,11.64 51.364,11.72 C51.344,12.42 51.464,18.46 51.464,19.42 C51.464,19.9 51.444,19.98 51.044,19.98 L50.044,19.98 C49.784,19.98 49.464,19.96 49.204,20 C49.004,20 48.904,19.94 48.884,19.74 L48.884,18.16 C48.924,16.48 48.884,6.52 48.884,5.78 C48.884,5.14 49.064,5.02 49.704,5.02 C50.144,5 50.584,5 51.024,5 C51.164,5 51.244,5.02 51.324,5.2 C51.864,6.46 54.164,12.24 54.524,12.94 C54.584,13.08 54.804,13.64 54.924,13.7 L54.944,13.7 C55.024,13.62 55.004,13.22 55.004,13.1 C55.004,12.8 54.844,5.78 54.844,5.64 C54.844,5.44 54.784,5.26 54.884,5.12 C54.944,5.04 55.204,5.02 55.304,5 C55.864,4.96 56.524,5.02 57.084,5 C57.364,5 57.344,5.2 57.404,5.46 L57.404,5.46 M61.69,15.9 L61.67,15.9 C61.67,16.4 61.65,16.92 61.67,17.44 C61.69,18.08 61.73,18.72 61.77,19.36 C61.77,19.58 61.83,19.64 62.03,19.68 C62.45,19.78 62.85,19.8 63.27,19.8 C64.35,19.76 65.43,19.84 66.51,19.8 C66.95,19.78 67.15,19.82 67.59,19.74 C67.99,19.66 68.13,19.44 68.13,18.84 C68.09,18.46 68.11,18.3 68.11,17.84 C68.11,17.18 67.65,16.96 67.25,16.98 C66.97,17 65.63,16.96 65.09,16.96 C64.19,16.98 64.33,17.1 64.33,16.16 C64.33,15.4 64.35,14.42 64.35,13.64 C64.35,13.22 64.39,13.08 64.79,13.08 L67.29,13.08 C67.69,13.14 67.97,12.86 67.97,12.44 C67.97,12.02 68.01,12 68.01,11.58 L67.95,10.98 C67.91,10.64 67.79,10.52 67.45,10.52 C67.23,10.52 67.01,10.54 66.79,10.56 C65.93,10.62 65.53,10.5 64.69,10.56 C64.41,10.56 64.37,10.52 64.35,10.26 C64.27,9.48 64.35,8.62 64.43,7.84 C64.45,7.52 64.53,7.46 64.83,7.44 L67.65,7.42 C68.03,7.38 68.15,7.4 68.13,7.02 C68.09,6.44 68.15,5.84 68.09,5.26 C68.05,4.94 67.95,4.88 67.59,4.88 C66.99,4.9 66.85,4.9 66.25,4.94 C65.65,4.96 63.25,4.96 62.67,4.96 C61.83,4.96 61.77,4.9 61.75,5.92 C61.71,6.72 61.73,7.54 61.73,8.36 C61.73,9.76 61.65,14.78 61.69,15.9 L61.69,15.9 M74.836,18.5 C74.836,17.98 74.836,14.7 74.856,14.44 C74.876,14.38 74.916,14.26 74.996,14.26 C75.076,14.26 75.116,14.3 75.136,14.36 C75.936,15.92 76.636,17.48 77.356,19 C77.456,19.22 77.676,19.86 77.736,19.92 C77.816,20.04 77.956,20 78.076,20 L80.276,20.02 C80.536,20.02 80.596,19.86 80.536,19.64 C80.376,19.04 79.236,16.92 78.976,16.4 C78.796,16 77.596,13.68 77.556,13.5 C77.516,13.42 77.816,13.28 77.856,13.22 C78.816,12.36 79.676,11.48 79.856,10.14 C80.056,8.82 79.756,7.38 78.896,6.32 C78.236,5.54 77.376,5.08 76.356,5.02 C75.736,4.98 75.136,5.04 74.516,5.02 C73.976,5 73.596,5 72.916,5 C72.596,5 72.396,5.18 72.376,5.52 L72.376,5.76 C72.336,7.3 72.376,8.84 72.396,10.36 C72.396,12.68 72.356,18.8 72.356,19.68 C72.356,19.94 72.396,20 72.636,20 C72.776,20 72.936,20.02 73.076,20.02 C73.636,20.02 73.976,20 74.556,20 C74.996,20 74.836,19.28 74.836,18.5 L74.836,18.5 M74.836,10.7 L74.856,8.68 C74.876,8.38 74.776,7.78 75.056,7.56 C75.436,7.28 76.216,7.56 76.556,7.8 C77.556,8.48 77.476,10.16 76.936,11.1 C76.676,11.54 76.236,11.8 75.736,11.94 C75.436,12.02 74.876,12.12 74.856,11.64 C74.856,11.32 74.836,10.7 74.836,10.7 L74.836,10.7"/>
</g>

<g fill="#000000" fill-opacity="1" stroke="#000000" stroke-opacity="1" stroke-width="1" stroke-linecap="square" stroke-linejoin="miter" stroke-miterlimit="2" transform="matrix(1.50815,0,0,1.50815,16.5054,163.635)"
>
</g>

<g fill="#000000" fill-opacity="1" stroke="#000000" stroke-opacity="1" stroke-width="1" stroke-linecap="square" stroke-linejoin="miter" stroke-miterlimit="2" transform="matrix(0.999968,0,0,0.999968,8.00226,8)"
>
</g>

<g fill="#000000" fill-opacity="1" stroke="#000000" stroke-opacity="1" stroke-width="1" stroke-linecap="square" stroke-linejoin="miter" stroke-miterlimit="2" transform="matrix(0.999968,0,0,0.999968,8.00226,8)"
>
</g>

<g fill="#000000" fill-opacity="1" stroke="#000000" stroke-opacity="1" stroke-width="1" stroke-linecap="square" stroke-linejoin="miter" stroke-miterlimit="2" transform="matrix(1,0,0,1,0,0)"
>
</g>

<g fill="#000000" fill-opacity="1" stroke="#000000" stroke-opacity="1" stroke-width="1" stroke-linecap="square" stroke-linejoin="miter" stroke-miterlimit="2" transform="matrix(1,0,0,1,0,0)"
>
</g>

<g fill="#000000" fill-opacity="1" stroke="#000000" stroke-opacity="1" stroke-width="1" stroke-linecap="square" stroke-linejoin="miter" stroke-miterlimit="2" transform="matrix(1,0,0,1,0,0)"
>
</g>

<g fill="#000000" fill-opacity="1" stroke="#000000" stroke-opacity="1" stroke-width="1" stroke-linecap="square" stroke-linejoin="miter" stroke-miterlimit="2" transform="matrix(1,0,0,1,0,0)"
>
</g>

<g fill="#000000" fill-opacity="1" stroke="#000000" stroke-opacity="1" stroke-width="1" stroke-linecap="square" stroke-linejoin="miter" stroke-miterlimit="2" transform="matrix(0.999968,0,0,0.999968,8.00226,8)"
>
</g>

<g fill="#000000" fill-opacity="1" stroke="#000000" stroke-opacity="1" stroke-width="1" stroke-linecap="square" stroke-linejoin="miter" stroke-miterlimit="2" transform="matrix(0.999968,0,0,0.999968,8.00226,8)"
>
</g>

<g fill="#000000" fill-opacity="1" stroke="#000000" stroke-opacity="1" stroke-width="1" stroke-linecap="square" stroke-linejoin="miter" stroke-miterlimit="2" transform="matrix(0.999968,0,0,0.999968,8.00226,8)"
>
</g>

<g fill="#000000" fill-opacity="1" stroke="#000000" stroke-opacity="1" stroke-width="1" stroke-linecap="square" stroke-linejoin="miter" stroke-miterlimit="2" transform="matrix(0.999968,0,0,0.999968,8.00226,8)"
>
</g>

<g fill="#000000" fill-opacity="1" stroke="#000000" stroke-opacity="1" stroke-width="1" stroke-linecap="square" stroke-linejoin="miter" stroke-miterlimit="2" transform="matrix(0.999968,0,0,0.999968,8.00226,8)"
>
</g>

<g fill="#000000" fill-opacity="1" stroke="#000000" stroke-opacity="1" stroke-width="1" stroke-linecap="square" stroke-linejoin="miter" stroke-miterlimit="2" transform="matrix(1,0,0,1,0,0)"
>
</g>

<g fill="#000000" fill-opacity="1" stroke="#000000" stroke-opacity="1" stroke-width="1" stroke-linecap="square" stroke-linejoin="miter" stroke-miterlimit="2" transform="matrix(1,0,0,1,0,0)"
>
</g>

<g fill="#000000" fill-opacity="1" stroke="#000000" stroke-opacity="1" stroke-width="1" stroke-linecap="square" stroke-linejoin="miter" stroke-miterlimit="2" transform="matrix(1,0,0,1,0,0)"
>
</g>

<g fill="#000000" fill-opacity="1" stroke="#000000" stroke-opacity="1" stroke-width="1" stroke-linecap="square" stroke-linejoin="miter" stroke-miterlimit="2" transform="matrix(1,0,0,1,0,0)"
>
</g>

<g fill="#000000" fill-opacity="1" stroke="#000000" stroke-opacity="1" stroke-width="1" stroke-linecap="square" stroke-linejoin="miter" stroke-miterlimit="2" transform="matrix(1,0,0,1,0,0)"
>
</g>

<g fill="#000000" fill-opacity="1" stroke="#000000" stroke-opacity="1" stroke-width="1" stroke-linecap="square" stroke-linejoin="miter" stroke-miterlimit="2" transform="matrix(1,0,0,1,0,0)"
>
</g>
</g>
</svg>
