<?xml version="1.0" encoding="utf-8"?>
<!-- Generator: Adobe Illustrator 23.0.1, SVG Export Plug-In . SVG Version: 6.00 Build 0)  -->
<svg version="1.1" id="Layer_1" xmlns="http://www.w3.org/2000/svg" xmlns:xlink="http://www.w3.org/1999/xlink" x="0px" y="0px"
	 viewBox="0 0 12 12" style="enable-background:new 0 0 12 12;" xml:space="preserve">
<style type="text/css">
	.st0{fill:#78BE20;}
</style>
<path class="st0" d="M8.6,7.5H8L7.8,7.4c1.6-1.9,1.4-4.7-0.5-6.3S2.7-0.3,1.1,1.5s-1.4,4.7,0.5,6.3c1.7,1.4,4.1,1.4,5.8,0L7.5,8v0.5
	L11,12l1-1L8.6,7.5z M4.5,7.5c-1.7,0-3.1-1.4-3.1-3.1s1.4-3.1,3.1-3.1c1.7,0,3.1,1.4,3.1,3.1C7.5,6.2,6.2,7.5,4.5,7.5
	C4.5,7.5,4.5,7.5,4.5,7.5L4.5,7.5z"/>
</svg>
