<?xml version="1.0" encoding="utf-8"?>
<!-- Generator: Adobe Illustrator 23.0.1, SVG Export Plug-In . SVG Version: 6.00 Build 0)  -->
<svg version="1.1" id="Layer_1" xmlns="http://www.w3.org/2000/svg" xmlns:xlink="http://www.w3.org/1999/xlink" x="0px" y="0px"
	 viewBox="0 0 13.2 12" style="enable-background:new 0 0 13.2 12;" xml:space="preserve">
<style type="text/css">
	.st0{fill:#78BE20;}
</style>
<g id="LinkedIn" transform="translate(-736.343 -144.062)">
	<path id="Rectangle_52" class="st0" d="M736.7,147.9h2.6v8.2h-2.6V147.9z"/>
	<path id="Path_878" class="st0" d="M746.3,147.8c-1.1-0.1-2.1,0.4-2.6,1.4v-1.3h-2.9c0,0.7,0,8.2,0,8.2h2.9v-4.4
		c0-0.2,0-0.4,0.1-0.7c0.2-0.6,0.8-1,1.4-1c1,0,1.5,0.8,1.5,1.9v4.2h2.9v-4.5C749.5,149,748.1,147.8,746.3,147.8L746.3,147.8z"/>
	<path id="Path_879" class="st0" d="M737.9,144.1c-0.8-0.1-1.5,0.5-1.6,1.3c-0.1,0.8,0.5,1.5,1.3,1.6c0.1,0,0.2,0,0.3,0h0
		c0.8,0.1,1.5-0.5,1.6-1.3c0.1-0.8-0.5-1.5-1.3-1.6C738.1,144.1,738,144.1,737.9,144.1L737.9,144.1z"/>
</g>
</svg>
