<?xml version="1.0" encoding="UTF-8" standalone="no"?>
<svg width="95.25mm" height="14.0229mm"
 xmlns="http://www.w3.org/2000/svg" xmlns:xlink="http://www.w3.org/1999/xlink"  version="1.2" baseProfile="tiny">
<desc>Created by EvoPdf</desc>
<defs>
</defs>
<g fill="none" stroke="black" stroke-width="1" fill-rule="evenodd" stroke-linecap="square" stroke-linejoin="bevel" >

<g fill="#000000" fill-opacity="1" stroke="#000000" stroke-opacity="1" stroke-width="1" stroke-linecap="square" stroke-linejoin="miter" stroke-miterlimit="2" transform="matrix(1,0,0,1,0,0)"
>
</g>

<g fill="#000000" fill-opacity="1" stroke="#000000" stroke-opacity="1" stroke-width="1" stroke-linecap="square" stroke-linejoin="miter" stroke-miterlimit="2" transform="matrix(1,0,0,1,0,0)"
>
</g>

<g fill="#000000" fill-opacity="1" stroke="#000000" stroke-opacity="1" stroke-width="1" stroke-linecap="square" stroke-linejoin="miter" stroke-miterlimit="2" transform="matrix(1,0,0,1,0,0)"
>
</g>

<g fill="#000000" fill-opacity="1" stroke="#000000" stroke-opacity="1" stroke-width="1" stroke-linecap="square" stroke-linejoin="miter" stroke-miterlimit="2" transform="matrix(1,0,0,1,0,0)"
>
</g>

<g fill="#000000" fill-opacity="1" stroke="#000000" stroke-opacity="1" stroke-width="1" stroke-linecap="square" stroke-linejoin="miter" stroke-miterlimit="2" transform="matrix(0.999748,0,0,0.999748,8.03985,8)"
>
</g>

<g fill="#000000" fill-opacity="1" stroke="#000000" stroke-opacity="1" stroke-width="1" stroke-linecap="square" stroke-linejoin="miter" stroke-miterlimit="2" transform="matrix(1.59578,0,0,1.59578,6.02917,9.12495)"
>
</g>

<g fill="#6e6c6c" fill-opacity="1" stroke="none" transform="matrix(1.59578,0,0,1.59578,6.02917,9.12495)"
>
<path vector-effect="none" fill-rule="nonzero" d="M1.26,5.7 L4.52,5.7 L4.52,20 L1.26,20 L1.26,5.7 M7.7,8.2 L5.8,8.2 L7.1,5.7 L10.38,5.7 L15.12,13.54 L15.24,13.88 L15.24,5.7 L18.36,5.7 L18.36,20 L15.7,20 L10.9,12.1 L10.8,11.8 L10.8,20 L7.7,20 L7.7,8.2 L7.7,8.2 M20.24,5.72 L23.72,5.72 L25.52,14.64 L27.74,5.72 L30.74,5.72 L32.94,14.84 L34.88,5.72 L38.06,5.72 L37.92,6.33 L37.54,7.95 L36.99,10.24 L36.36,12.86 L35.73,15.49 L35.17,17.78 L34.77,19.39 L34.62,20 L31.22,20 L29.12,11.38 L26.88,20 L23.68,20 L20.24,5.72 M41.92,8.2 L40.5,8.2 L41.8,5.72 L46.2,5.72 L50.68,20 L47.24,20 L46.44,17.14 L45.66,17.2 L42.88,17.2 L42.2,17.14 L41.38,20 L38.16,20 L41.92,8.2 M45.66,14.42 L44.34,9.66 L42.94,14.42 L45.66,14.42 M52.34,5.82 C52.98,5.74 53.5666,5.67666 54.1,5.63 C54.6334,5.58334 55.2,5.56 55.8,5.56 C56.5333,5.56 57.2633,5.63 57.99,5.77 C58.7167,5.91 59.3667,6.15334 59.94,6.5 C60.5133,6.84666 60.9767,7.31332 61.33,7.9 C61.6833,8.48668 61.86,9.2333 61.86,10.14 C61.86,10.66 61.79,11.1267 61.65,11.54 C61.51,11.9533 61.3367,12.3167 61.13,12.63 C60.9233,12.9433 60.6933,13.2167 60.44,13.45 C60.1867,13.6834 59.94,13.88 59.7,14.04 L59.6,14.1 L59.87,14.54 L60.53,15.64 L61.38,17.06 L62.23,18.47 L62.87,19.56 L63.12,19.98 L59.46,19.98 L55.68,13.4 L55.68,20 L52.34,20 L52.34,5.82002 L52.34,5.82 M55.68,13.28 L56.38,12.96 C56.5533,12.88 56.76,12.78 57,12.66 C57.24,12.54 57.4733,12.3833 57.7,12.19 C57.9267,11.9967 58.12,11.7667 58.28,11.5 C58.44,11.2333 58.52,10.9067 58.52,10.52 C58.52,10.1067 58.46,9.76334 58.34,9.49002 C58.22,9.2167 58.0533,8.99668 57.84,8.83002 C57.6267,8.66336 57.3767,8.54336 57.09,8.47002 C56.8033,8.39668 56.4933,8.36002 56.16,8.36002 L55.93,8.36002 L55.68,8.38002 L55.68,13.28 L55.68,13.28 M64.58,5.82 C65.2067,5.74 65.8334,5.67666 66.46,5.63 C67.0866,5.58334 67.76,5.56 68.48,5.56 C70.9866,5.56 72.8934,6.17 74.2,7.39 C75.5066,8.61 76.16,10.48 76.16,13 C76.16,15.5066 75.4933,17.3366 74.16,18.49 C72.8267,19.6434 70.8534,20.22 68.24,20.22 C67.6,20.22 66.9867,20.2 66.4,20.16 C65.8133,20.12 65.2067,20.06 64.58,19.98 L64.58,5.82 L64.58,5.82 M67.86,17.3 C68.5133,17.3667 69.1334,17.3666 69.72,17.3 C70.3066,17.2333 70.8233,17.0467 71.27,16.74 C71.7167,16.4333 72.07,15.9767 72.33,15.37 C72.59,14.7633 72.72,13.9533 72.72,12.94 C72.72,12.0467 72.6167,11.3133 72.41,10.74 C72.2033,10.1667 71.9233,9.71 71.57,9.37 C71.2167,9.03 70.81,8.79334 70.35,8.66 C69.89,8.52666 69.4067,8.46 68.9,8.46 L68.41,8.46 L67.86,8.5 L67.86,17.3 L67.86,17.3"/>
</g>

<g fill="#000000" fill-opacity="1" stroke="#000000" stroke-opacity="1" stroke-width="1" stroke-linecap="square" stroke-linejoin="miter" stroke-miterlimit="2" transform="matrix(1.59578,0,0,1.59578,6.02917,9.12495)"
>
</g>

<g fill="#000000" fill-opacity="1" stroke="#000000" stroke-opacity="1" stroke-width="1" stroke-linecap="square" stroke-linejoin="miter" stroke-miterlimit="2" transform="matrix(0.999748,0,0,0.999748,8.03985,8)"
>
</g>

<g fill="#000000" fill-opacity="1" stroke="#000000" stroke-opacity="1" stroke-width="1" stroke-linecap="square" stroke-linejoin="miter" stroke-miterlimit="2" transform="matrix(0.524185,0,0,0.524185,145.384,2.84569)"
>
</g>

<g fill="#78be20" fill-opacity="1" stroke="none" transform="matrix(0.524185,0,0,0.524185,145.384,2.84569)"
>
<path vector-effect="none" fill-rule="nonzero" d="M5,9.833 L5,13.554 L48.136,13.554 L48.136,31.922 C43.302,32.803 39.621,37.038 39.621,42.125 L39.621,43.985 L60.372,43.985 L60.372,42.125 C60.372,37.038 56.691,32.802 51.856,31.922 L51.856,13.554 L95,13.554 L95,9.833 L5,9.833 M56.388,40.265 L43.606,40.265 C44.412,37.496 46.971,35.467 49.996,35.467 C53.021,35.467 55.581,37.496 56.388,40.265 "/>
</g>

<g fill="#000000" fill-opacity="1" stroke="#000000" stroke-opacity="1" stroke-width="1" stroke-linecap="square" stroke-linejoin="miter" stroke-miterlimit="2" transform="matrix(0.524185,0,0,0.524185,145.384,2.84569)"
>
</g>

<g fill="#78be20" fill-opacity="1" stroke="none" transform="matrix(0.524185,0,0,0.524185,145.384,2.84569)"
>
<path vector-effect="none" fill-rule="nonzero" d="M81.513,76.213 L65.249,76.213 L65.249,86.445 L52.222,86.445 L52.222,69 L63.643,69 L63.643,65.279 L36.354,65.279 L36.354,69 L48.5,69 L48.5,86.445 L36.19,86.445 L36.19,76.213 L19.93,76.213 L19.93,86.445 L5,86.445 L5,90.166 L95,90.166 L95,86.445 L81.513,86.445 L81.513,76.213 M68.97,79.934 L77.792,79.934 L77.792,86.446 L68.97,86.446 L68.97,79.934 M23.65,79.934 L32.47,79.934 L32.47,86.446 L23.65,86.446 L23.65,79.934 L23.65,79.934"/>
</g>

<g fill="#000000" fill-opacity="1" stroke="#000000" stroke-opacity="1" stroke-width="1" stroke-linecap="square" stroke-linejoin="miter" stroke-miterlimit="2" transform="matrix(0.524185,0,0,0.524185,145.384,2.84569)"
>
</g>

<g fill="#000000" fill-opacity="1" stroke="#000000" stroke-opacity="1" stroke-width="1" stroke-linecap="square" stroke-linejoin="miter" stroke-miterlimit="2" transform="matrix(0.524185,0,0,0.524185,145.384,2.84569)"
>
</g>

<g fill="#000000" fill-opacity="1" stroke="#000000" stroke-opacity="1" stroke-width="1" stroke-linecap="square" stroke-linejoin="miter" stroke-miterlimit="2" transform="matrix(0.999748,0,0,0.999748,8.03985,8)"
>
</g>

<g fill="#000000" fill-opacity="1" stroke="#000000" stroke-opacity="1" stroke-width="1" stroke-linecap="square" stroke-linejoin="miter" stroke-miterlimit="2" transform="matrix(1.62008,0,0,1.62008,204.425,8.98988)"
>
</g>

<g fill="#78be20" fill-opacity="1" stroke="none" transform="matrix(1.62008,0,0,1.62008,204.425,8.98988)"
>
<path vector-effect="none" fill-rule="nonzero" d="M6.52,5.74 C7.8,5.62 9.0934,5.55996 10.4,5.55996 C11.08,5.55996 11.7633,5.62662 12.45,5.75996 C13.1367,5.8933 13.7567,6.14664 14.31,6.51998 C14.8633,6.89332 15.3167,7.41332 15.67,8.07998 C16.0233,8.74664 16.2,9.60668 16.2,10.66 C16.2,11.7133 16.0233,12.57 15.67,13.23 C15.3167,13.89 14.8633,14.4067 14.31,14.78 C13.7567,15.1533 13.14,15.4067 12.46,15.54 C11.78,15.6733 11.1067,15.74 10.44,15.74 C10.3467,15.74 10.24,15.7367 10.12,15.73 C10,15.7233 9.88666,15.7133 9.78,15.7 L9.78,20 L6.52,20 L6.52,5.74 L6.52,5.74 M9.78,12.48 L9.7,12.92 C10.1133,12.9733 10.51,12.97 10.89,12.91 C11.27,12.85 11.6033,12.73 11.89,12.55 C12.1767,12.37 12.4067,12.1267 12.58,11.82 C12.7533,11.5133 12.84,11.14 12.84,10.7 C12.84,10.26 12.7733,9.89 12.64,9.59 C12.5067,9.29 12.33,9.05 12.11,8.87 C11.89,8.69 11.64,8.56 11.36,8.48 C11.08,8.4 10.7867,8.36 10.48,8.36 L10.2,8.36 L9.78,8.4 L9.78,12.48 L9.78,12.48 M18.24,5.7 L21.42,5.7 L21.42,17.12 L23.72,17.12 L24.22,17.18 L24.22,15.82 L26.92,14.56 L26.92,20 L18.24,20 L18.24,5.7 L18.24,5.7 M31.72,8.2 L30.3,8.2 L31.6,5.72 L36,5.72 L40.48,20 L37.04,20 L36.24,17.14 L35.46,17.2 L32.68,17.2 L32,17.14 L31.18,20 L27.96,20 L31.72,8.2 M35.46,14.42 L34.14,9.66 L32.74,14.42 L35.46,14.42 M42.7,8.2 L40.8,8.2 L42.1,5.7 L45.38,5.7 L50.12,13.54 L50.24,13.88 L50.24,5.7 L53.36,5.7 L53.36,20 L50.7,20 L45.9,12.1 L45.8,11.8 L45.8,20 L42.7,20 L42.7,8.2 L42.7,8.2 M56.98,8.2 L55.08,8.2 L56.38,5.7 L59.66,5.7 L64.4,13.54 L64.52,13.88 L64.52,5.7 L67.64,5.7 L67.64,20 L64.98,20 L60.18,12.1 L60.08,11.8 L60.08,20 L56.98,20 L56.98,8.2 M70.66,5.7 L79.08,5.7 C78.9467,6.20666 78.8133,6.68666 78.68,7.14 C78.5466,7.59334 78.4133,8.06 78.28,8.54 L73.88,8.54 C73.88,8.59334 73.8866,8.67 73.9,8.77 C73.9133,8.87 73.92,8.94666 73.92,9 L73.92,11.1 L77.96,11.1 L77.96,13.96 L73.92,13.96 L73.92,16.7 L73.88,17.16 L79.16,17.16 L79.16,20 L70.66,20 L70.66,5.7 L70.66,5.7 M81.28,5.82 C81.92,5.74 82.5066,5.67666 83.04,5.63 C83.5734,5.58334 84.14,5.56 84.74,5.56 C85.4733,5.56 86.2033,5.63 86.93,5.77 C87.6567,5.91 88.3067,6.15334 88.88,6.5 C89.4533,6.84666 89.9167,7.31332 90.27,7.9 C90.6233,8.48668 90.8,9.2333 90.8,10.14 C90.8,10.66 90.73,11.1267 90.59,11.54 C90.45,11.9533 90.2767,12.3167 90.07,12.63 C89.8633,12.9433 89.6333,13.2167 89.38,13.45 C89.1267,13.6834 88.88,13.88 88.64,14.04 L88.54,14.1 L88.81,14.54 L89.47,15.64 L90.32,17.06 L91.17,18.47 L91.81,19.56 L92.06,19.98 L88.4,19.98 L84.62,13.4 L84.62,20 L81.28,20 L81.28,5.82002 L81.28,5.82 M84.62,13.28 L85.32,12.96 C85.4933,12.88 85.7,12.78 85.94,12.66 C86.18,12.54 86.4133,12.3833 86.64,12.19 C86.8667,11.9967 87.06,11.7667 87.22,11.5 C87.38,11.2333 87.46,10.9067 87.46,10.52 C87.46,10.1067 87.4,9.76334 87.28,9.49002 C87.16,9.2167 86.9933,8.99668 86.78,8.83002 C86.5667,8.66336 86.3167,8.54336 86.03,8.47002 C85.7433,8.39668 85.4333,8.36002 85.1,8.36002 L84.87,8.36002 L84.62,8.38002 L84.62,13.28 L84.62,13.28"/>
</g>

<g fill="#000000" fill-opacity="1" stroke="#000000" stroke-opacity="1" stroke-width="1" stroke-linecap="square" stroke-linejoin="miter" stroke-miterlimit="2" transform="matrix(1.62008,0,0,1.62008,204.425,8.98988)"
>
</g>

<g fill="#000000" fill-opacity="1" stroke="#000000" stroke-opacity="1" stroke-width="1" stroke-linecap="square" stroke-linejoin="miter" stroke-miterlimit="2" transform="matrix(0.999748,0,0,0.999748,8.03985,8)"
>
</g>

<g fill="#000000" fill-opacity="1" stroke="#000000" stroke-opacity="1" stroke-width="1" stroke-linecap="square" stroke-linejoin="miter" stroke-miterlimit="2" transform="matrix(0.999748,0,0,0.999748,8.03985,8)"
>
</g>

<g fill="#000000" fill-opacity="1" stroke="#000000" stroke-opacity="1" stroke-width="1" stroke-linecap="square" stroke-linejoin="miter" stroke-miterlimit="2" transform="matrix(1,0,0,1,0,0)"
>
</g>

<g fill="#000000" fill-opacity="1" stroke="#000000" stroke-opacity="1" stroke-width="1" stroke-linecap="square" stroke-linejoin="miter" stroke-miterlimit="2" transform="matrix(1,0,0,1,0,0)"
>
</g>

<g fill="#000000" fill-opacity="1" stroke="#000000" stroke-opacity="1" stroke-width="1" stroke-linecap="square" stroke-linejoin="miter" stroke-miterlimit="2" transform="matrix(1,0,0,1,0,0)"
>
</g>

<g fill="#000000" fill-opacity="1" stroke="#000000" stroke-opacity="1" stroke-width="1" stroke-linecap="square" stroke-linejoin="miter" stroke-miterlimit="2" transform="matrix(1,0,0,1,0,0)"
>
</g>

<g fill="#000000" fill-opacity="1" stroke="#000000" stroke-opacity="1" stroke-width="1" stroke-linecap="square" stroke-linejoin="miter" stroke-miterlimit="2" transform="matrix(0.999748,0,0,0.999748,8.03985,8)"
>
</g>

<g fill="#000000" fill-opacity="1" stroke="#000000" stroke-opacity="1" stroke-width="1" stroke-linecap="square" stroke-linejoin="miter" stroke-miterlimit="2" transform="matrix(0.999748,0,0,0.999748,8.03985,8)"
>
</g>

<g fill="#000000" fill-opacity="1" stroke="#000000" stroke-opacity="1" stroke-width="1" stroke-linecap="square" stroke-linejoin="miter" stroke-miterlimit="2" transform="matrix(0.524185,0,0,0.524185,145.384,2.84569)"
>
</g>

<g fill="#000000" fill-opacity="1" stroke="#000000" stroke-opacity="1" stroke-width="1" stroke-linecap="square" stroke-linejoin="miter" stroke-miterlimit="2" transform="matrix(0.524185,0,0,0.524185,145.384,2.84569)"
>
</g>

<g fill="#000000" fill-opacity="1" stroke="#000000" stroke-opacity="1" stroke-width="1" stroke-linecap="square" stroke-linejoin="miter" stroke-miterlimit="2" transform="matrix(0.999748,0,0,0.999748,8.03985,8)"
>
</g>

<g fill="#000000" fill-opacity="1" stroke="#000000" stroke-opacity="1" stroke-width="1" stroke-linecap="square" stroke-linejoin="miter" stroke-miterlimit="2" transform="matrix(0.999748,0,0,0.999748,8.03985,8)"
>
</g>

<g fill="#000000" fill-opacity="1" stroke="#000000" stroke-opacity="1" stroke-width="1" stroke-linecap="square" stroke-linejoin="miter" stroke-miterlimit="2" transform="matrix(0.999748,0,0,0.999748,8.03985,8)"
>
</g>

<g fill="#000000" fill-opacity="1" stroke="#000000" stroke-opacity="1" stroke-width="1" stroke-linecap="square" stroke-linejoin="miter" stroke-miterlimit="2" transform="matrix(1,0,0,1,0,0)"
>
</g>

<g fill="#000000" fill-opacity="1" stroke="#000000" stroke-opacity="1" stroke-width="1" stroke-linecap="square" stroke-linejoin="miter" stroke-miterlimit="2" transform="matrix(1,0,0,1,0,0)"
>
</g>

<g fill="#000000" fill-opacity="1" stroke="#000000" stroke-opacity="1" stroke-width="1" stroke-linecap="square" stroke-linejoin="miter" stroke-miterlimit="2" transform="matrix(1,0,0,1,0,0)"
>
</g>

<g fill="#000000" fill-opacity="1" stroke="#000000" stroke-opacity="1" stroke-width="1" stroke-linecap="square" stroke-linejoin="miter" stroke-miterlimit="2" transform="matrix(1,0,0,1,0,0)"
>
</g>

<g fill="#000000" fill-opacity="1" stroke="#000000" stroke-opacity="1" stroke-width="1" stroke-linecap="square" stroke-linejoin="miter" stroke-miterlimit="2" transform="matrix(1,0,0,1,0,0)"
>
</g>

<g fill="#000000" fill-opacity="1" stroke="#000000" stroke-opacity="1" stroke-width="1" stroke-linecap="square" stroke-linejoin="miter" stroke-miterlimit="2" transform="matrix(1,0,0,1,0,0)"
>
</g>
</g>
</svg>
