<?xml version="1.0" encoding="utf-8"?>
<!-- Generator: Adobe Illustrator 23.0.1, SVG Export Plug-In . SVG Version: 6.00 Build 0)  -->
<svg version="1.1" id="Layer_1" xmlns="http://www.w3.org/2000/svg" xmlns:xlink="http://www.w3.org/1999/xlink" x="0px" y="0px"
	 viewBox="0 0 14.4 12" style="enable-background:new 0 0 14.4 12;" xml:space="preserve">
<style type="text/css">
	.st0{fill:#78BE20;}
</style>
<path class="st0" d="M14,0.2c-0.6,0.4-1.2,0.6-1.9,0.7c-0.6-0.6-1.3-1-2.2-1C8.3,0,7,1.4,7,3c0,0.2,0,0.5,0.1,0.7
	C4.7,3.6,2.5,2.4,1,0.6C0.7,1,0.6,1.5,0.6,2.1c0,1,0.5,1.9,1.3,2.5C1.4,4.6,1,4.5,0.6,4.2v0c0,1.4,1,2.7,2.4,3
	C2.7,7.3,2.4,7.3,2.2,7.3c-0.2,0-0.4,0-0.6-0.1C2,8.5,3.1,9.4,4.4,9.4c-1,0.8-2.3,1.3-3.7,1.3c-0.2,0-0.5,0-0.7,0
	C1.3,11.5,2.9,12,4.5,12c4.7,0,8.4-3.8,8.4-8.5c0,0,0-0.1,0-0.1c0-0.1,0-0.3,0-0.4c0.6-0.4,1.1-1,1.5-1.6c-0.5,0.2-1.1,0.4-1.7,0.5
	C13.3,1.5,13.8,0.9,14,0.2L14,0.2z"/>
</svg>
