<?xml version="1.0" encoding="utf-8"?>
<!-- Generator: Adobe Illustrator 23.0.1, SVG Export Plug-In . SVG Version: 6.00 Build 0)  -->
<svg version="1.1" id="Layer_1" xmlns="http://www.w3.org/2000/svg" xmlns:xlink="http://www.w3.org/1999/xlink" x="0px" y="0px"
	 viewBox="0 0 16 12" style="enable-background:new 0 0 16 12;" xml:space="preserve">
<style type="text/css">
	.st0{fill:#78BE20;}
</style>
<path class="st0" d="M15.9,2.6c0.1-1.3-1-2.5-2.3-2.5C11.9,0,10.1,0,8.3,0H7.7C5.9,0,4.1,0,2.4,0.1C1.1,0.2,0,1.3,0.1,2.7
	C0,3.8,0,4.9,0,6s0,2.2,0.1,3.3c-0.1,1.3,1,2.5,2.3,2.5C4.2,12,6.1,12,8,12s3.8,0,5.6-0.1c1.3-0.1,2.4-1.2,2.3-2.5
	C16,8.2,16,7.1,16,6C16,4.9,16,3.8,15.9,2.6 M6.5,9.1V2.9L11,6L6.5,9.1z"/>
</svg>
