<?xml version="1.0" encoding="utf-8"?>
<!-- Generator: Adobe Illustrator 23.0.1, SVG Export Plug-In . SVG Version: 6.00 Build 0)  -->
<svg version="1.1" id="Layer_1" xmlns="http://www.w3.org/2000/svg" xmlns:xlink="http://www.w3.org/1999/xlink" x="0px" y="0px"
	 viewBox="0 0 44.7 39" style="enable-background:new 0 0 44.7 39;" xml:space="preserve">
<style type="text/css">
	.st0{fill:#78BE20;}
</style>
<desc>Created by EvoPdf</desc>
<g transform="matrix(1,0,0,1,0,0)">
</g>
<g transform="matrix(1,0,0,1,0,0)">
</g>
<g transform="matrix(1,0,0,1,0,0)">
</g>
<g transform="matrix(1,0,0,1,0,0)">
</g>
<g transform="matrix(0.999748,0,0,0.999748,8.00633,8)">
</g>
<g transform="matrix(1.63595,0,0,1.63595,5.94503,8.67256)">
</g>
<g transform="matrix(1.63595,0,0,1.63595,5.94503,8.67256)">
</g>
<g transform="matrix(0.999748,0,0,0.999748,8.00633,8)">
</g>
<g transform="matrix(0.524185,0,0,0.524185,30.3791,2.84569)">
</g>
<g transform="matrix(0.524185,0,0,0.524185,30.3791,2.84569)">
</g>
<g transform="matrix(0.524185,0,0,0.524185,30.3791,2.84569)">
</g>
<g transform="matrix(0.524185,0,0,0.524185,30.3791,2.84569)">
</g>
<g transform="matrix(0.999748,0,0,0.999748,8.00633,8)">
</g>
<g transform="matrix(1.62009,0,0,1.62009,89.4202,8.98987)">
</g>
<g transform="matrix(1.62009,0,0,1.62009,89.4202,8.98987)">
</g>
<g transform="matrix(0.999748,0,0,0.999748,8.00633,8)">
</g>
<g transform="matrix(0.999748,0,0,0.999748,8.00633,8)">
</g>
<g transform="matrix(1,0,0,1,0,0)">
</g>
<g transform="matrix(1,0,0,1,0,0)">
</g>
<g transform="matrix(1,0,0,1,0,0)">
</g>
<g transform="matrix(1,0,0,1,0,0)">
</g>
<g transform="matrix(0.999748,0,0,0.999748,8.00633,8)">
</g>
<g transform="matrix(0.999748,0,0,0.999748,8.00633,8)">
</g>
<g transform="matrix(0.524185,0,0,0.524185,30.3791,2.84569)">
</g>
<g transform="matrix(0.524185,0,0,0.524185,30.3791,2.84569)">
</g>
<g transform="matrix(0.999748,0,0,0.999748,8.00633,8)">
</g>
<g transform="matrix(0.999748,0,0,0.999748,8.00633,8)">
</g>
<g transform="matrix(0.999748,0,0,0.999748,8.00633,8)">
</g>
<g transform="matrix(1,0,0,1,0,0)">
</g>
<g transform="matrix(1,0,0,1,0,0)">
</g>
<g transform="matrix(1,0,0,1,0,0)">
</g>
<g transform="matrix(1,0,0,1,0,0)">
</g>
<g transform="matrix(1,0,0,1,0,0)">
</g>
<g>
	<g transform="matrix(0.524185,0,0,0.524185,30.3791,2.84569)">
		<path vector-effect="none" class="st0" d="M-54.9-3.3V0h37.6v16c-4.2,0.8-7.4,4.5-7.4,8.9v1.6h18.1v-1.6c0-4.4-3.2-8.1-7.4-8.9V0
			h37.6v-3.2H-54.9 M-10.1,23.3h-11.2c0.7-2.4,2.9-4.2,5.6-4.2C-13,19.1-10.8,20.9-10.1,23.3"/>
	</g>
	<g transform="matrix(0.524185,0,0,0.524185,30.3791,2.84569)">
		<path vector-effect="none" class="st0" d="M11.8,54.6H-2.4v8.9h-11.4V48.4h10v-3.2h-23.8v3.2H-17v15.2h-10.7v-8.9h-14.2v8.9h-13
			v3.2h78.5v-3.2H11.8V54.6 M0.9,57.9h7.7v5.7H0.9V57.9 M-38.7,57.9h7.7v5.7h-7.7V57.9L-38.7,57.9"/>
	</g>
	<g transform="matrix(1,0,0,1,0,0)">
	</g>
</g>
</svg>
