<?xml version="1.0" encoding="utf-8"?>
<!-- Generator: Adobe Illustrator 23.0.1, SVG Export Plug-In . SVG Version: 6.00 Build 0)  -->
<svg version="1.1" id="Layer_1" xmlns="http://www.w3.org/2000/svg" xmlns:xlink="http://www.w3.org/1999/xlink" x="0px" y="0px"
	 viewBox="0 0 12 12" style="enable-background:new 0 0 12 12;" xml:space="preserve">
<style type="text/css">
	.st0{fill:#78BE20;}
</style>
<path class="st0" d="M10.9,5.5c-0.3-2.3-2.1-4.1-4.3-4.3V0H5.5v1.1C3.2,1.4,1.4,3.2,1.1,5.5H0v1.1h1.1c0.3,2.3,2.1,4.1,4.3,4.3V12
	h1.1v-1.1c2.3-0.3,4.1-2.1,4.3-4.3H12V5.5H10.9z M6,9.8C3.9,9.8,2.2,8.1,2.2,6S3.9,2.2,6,2.2S9.8,3.9,9.8,6l0,0
	C9.8,8.1,8.1,9.8,6,9.8C6,9.8,6,9.8,6,9.8z"/>
</svg>
