<?xml version="1.0" encoding="utf-8"?>
<!-- Generator: Adobe Illustrator 23.0.1, SVG Export Plug-In . SVG Version: 6.00 Build 0)  -->
<svg version="1.1" id="Layer_1" xmlns="http://www.w3.org/2000/svg" xmlns:xlink="http://www.w3.org/1999/xlink" x="0px" y="0px"
	 viewBox="0 0 402.3 405.2" style="enable-background:new 0 0 402.3 405.2;" xml:space="preserve">
<style type="text/css">
	.st0{fill:#78BE20;}
	.st1{fill:#FFFFFF;}
</style>
<g>
	<path class="st0" d="M201.4,2.2C-15.9-6.1,1.3,177.1,1.3,177.1c-6.9,90.3,200,227.5,200,227.5C402,282.3,401.8,171.3,401.8,171.3
		C401.8-15.8,201.4,2.2,201.4,2.2"/>
	<g>
		<path class="st1" d="M160.5,111.7V97.5h85.2v14.2l-39.1,4h-7.8L160.5,111.7z M206.6,252.9l39.1,4v14.2h-85.2v-14.2l38.3-4H206.6z
			 M180.8,179.4c0-27.2,0-54.6-0.8-81.8h45.9c-0.8,26.7-0.8,54.1-0.8,81.8v9.6c0,27.4,0,54.8,0.8,82H180c0.8-26.7,0.8-54.1,0.8-81.8
			V179.4z"/>
	</g>
</g>
</svg>
