<?xml version="1.0" encoding="utf-8"?>
<!-- Generator: Adobe Illustrator 23.0.1, SVG Export Plug-In . SVG Version: 6.00 Build 0)  -->
<svg version="1.1" id="Layer_1" xmlns="http://www.w3.org/2000/svg" xmlns:xlink="http://www.w3.org/1999/xlink" x="0px" y="0px"
	 viewBox="0 0 24 24" style="enable-background:new 0 0 24 24;" xml:space="preserve">
<style type="text/css">
	.st0{fill:#F3F5F8;}
	.st1{fill:#78BE20;}
</style>
<g id="linkedin_icon" transform="translate(-84 -1240)">
	<circle id="Ellipse_20" class="st0" cx="96" cy="1252" r="12"/>
	<g id="LinkedIn" transform="translate(-645.342 1102.938)">
		<path id="Rectangle_52" class="st1" d="M736.6,147.3h1.9v6.8h-1.9V147.3z"/>
		<path id="Path_878" class="st1" d="M743.9,147.2c-0.8-0.1-1.6,0.4-1.9,1.1v-1.1h-2.2c0,0.6,0,6.8,0,6.8h2.2v-3.7
			c0-0.2,0-0.4,0-0.6c0.1-0.5,0.6-0.8,1.1-0.8c0.8,0,1.1,0.6,1.1,1.5v3.5h2.2v-3.8C746.3,148.2,745.3,147.2,743.9,147.2L743.9,147.2
			z"/>
		<path id="Path_879" class="st1" d="M737.5,144.1c-0.7,0-1.2,0.5-1.2,1.2c0,0.6,0.5,1.1,1.1,1.2h0c0.7,0,1.2-0.5,1.2-1.1
			S738.3,144.1,737.5,144.1C737.6,144.1,737.6,144.1,737.5,144.1L737.5,144.1z"/>
	</g>
</g>
</svg>
